<?xml version="1.0" standalone="no"?><!DOCTYPE svg PUBLIC "-//W3C//DTD SVG 1.1//EN" "http://www.w3.org/Graphics/SVG/1.1/DTD/svg11.dtd"><svg t="1602470191469" class="icon" viewBox="0 0 1024 1024" version="1.1" xmlns="http://www.w3.org/2000/svg" p-id="2452" xmlns:xlink="http://www.w3.org/1999/xlink" width="200" height="200"><defs><style type="text/css"></style></defs><path d="M895.5 314.2c11 11.3 16.6 24.7 16.6 40.4 0 15.6-5.6 29.1-16.6 40.4L716.4 573.6l67 67-71.4 71.5c-48.5 48.5-106.5 76.3-173.9 83.2-67.4 7-128.7-8-183.7-44.8L192.8 912H112v-80.8l161.6-161.6c-36.9-55-51.8-116.3-44.8-183.7s34.7-125.3 83.3-173.9l71.4-71.4 67 67 178.6-179c11.3-11 24.8-16.6 40.7-16.6 15.8 0 29.2 5.6 40.2 16.6 11 11 16.6 24.5 16.6 40.4 0 16-5.6 29.4-16.6 40.4L531.2 388.3l104.5 104.5 179.1-178.6c11.3-11 24.8-16.6 40.7-16.6 15.5 0.1 28.9 5.6 40 16.6z" p-id="2453" fill="#7cfc00"></path></svg>